<svg width="34" height="10" viewBox="0 0 34 10" fill="none" xmlns="http://www.w3.org/2000/svg">
<path d="M3.83789 7.21875L5.84766 0.46875H7.80469L4.83398 9H3.54492L3.83789 7.21875ZM1.98633 0.46875L3.99023 7.21875L4.29492 9H2.99414L0.0410156 0.46875H1.98633ZM11.1562 9.11719C10.6641 9.11719 10.2227 9.03906 9.83203 8.88281C9.44141 8.72266 9.10938 8.50195 8.83594 8.2207C8.56641 7.93945 8.35938 7.61328 8.21484 7.24219C8.07031 6.86719 7.99805 6.46875 7.99805 6.04688V5.8125C7.99805 5.33203 8.06641 4.89258 8.20312 4.49414C8.33984 4.0957 8.53516 3.75 8.78906 3.45703C9.04688 3.16406 9.35938 2.93945 9.72656 2.7832C10.0938 2.62305 10.5078 2.54297 10.9688 2.54297C11.418 2.54297 11.8164 2.61719 12.1641 2.76562C12.5117 2.91406 12.8027 3.125 13.0371 3.39844C13.2754 3.67188 13.4551 4 13.5762 4.38281C13.6973 4.76172 13.7578 5.18359 13.7578 5.64844V6.35156H8.71875V5.22656H12.0996V5.09766C12.0996 4.86328 12.0566 4.6543 11.9707 4.4707C11.8887 4.2832 11.7637 4.13477 11.5957 4.02539C11.4277 3.91602 11.2129 3.86133 10.9512 3.86133C10.7285 3.86133 10.5371 3.91016 10.377 4.00781C10.2168 4.10547 10.0859 4.24219 9.98438 4.41797C9.88672 4.59375 9.8125 4.80078 9.76172 5.03906C9.71484 5.27344 9.69141 5.53125 9.69141 5.8125V6.04688C9.69141 6.30078 9.72656 6.53516 9.79688 6.75C9.87109 6.96484 9.97461 7.15039 10.1074 7.30664C10.2441 7.46289 10.4082 7.58398 10.5996 7.66992C10.7949 7.75586 11.0156 7.79883 11.2617 7.79883C11.5664 7.79883 11.8496 7.74023 12.1113 7.62305C12.377 7.50195 12.6055 7.32031 12.7969 7.07812L13.6172 7.96875C13.4844 8.16016 13.3027 8.34375 13.0723 8.51953C12.8457 8.69531 12.5723 8.83984 12.252 8.95312C11.9316 9.0625 11.5664 9.11719 11.1562 9.11719ZM16.5 0V9H14.8066V0H16.5ZM20.0508 7.76953L21.457 2.66016H23.2207L21.082 9H20.0156L20.0508 7.76953ZM19.084 2.66016L20.4961 7.77539L20.5254 9H19.4531L17.3145 2.66016H19.084ZM26.8125 9.11719C26.3203 9.11719 25.8789 9.03906 25.4883 8.88281C25.0977 8.72266 24.7656 8.50195 24.4922 8.2207C24.2227 7.93945 24.0156 7.61328 23.8711 7.24219C23.7266 6.86719 23.6543 6.46875 23.6543 6.04688V5.8125C23.6543 5.33203 23.7227 4.89258 23.8594 4.49414C23.9961 4.0957 24.1914 3.75 24.4453 3.45703C24.7031 3.16406 25.0156 2.93945 25.3828 2.7832C25.75 2.62305 26.1641 2.54297 26.625 2.54297C27.0742 2.54297 27.4727 2.61719 27.8203 2.76562C28.168 2.91406 28.459 3.125 28.6934 3.39844C28.9316 3.67188 29.1113 4 29.2324 4.38281C29.3535 4.76172 29.4141 5.18359 29.4141 5.64844V6.35156H24.375V5.22656H27.7559V5.09766C27.7559 4.86328 27.7129 4.6543 27.627 4.4707C27.5449 4.2832 27.4199 4.13477 27.252 4.02539C27.084 3.91602 26.8691 3.86133 26.6074 3.86133C26.3848 3.86133 26.1934 3.91016 26.0332 4.00781C25.873 4.10547 25.7422 4.24219 25.6406 4.41797C25.543 4.59375 25.4688 4.80078 25.418 5.03906C25.3711 5.27344 25.3477 5.53125 25.3477 5.8125V6.04688C25.3477 6.30078 25.3828 6.53516 25.4531 6.75C25.5273 6.96484 25.6309 7.15039 25.7637 7.30664C25.9004 7.46289 26.0645 7.58398 26.2559 7.66992C26.4512 7.75586 26.6719 7.79883 26.918 7.79883C27.2227 7.79883 27.5059 7.74023 27.7676 7.62305C28.0332 7.50195 28.2617 7.32031 28.4531 7.07812L29.2734 7.96875C29.1406 8.16016 28.959 8.34375 28.7285 8.51953C28.502 8.69531 28.2285 8.83984 27.9082 8.95312C27.5879 9.0625 27.2227 9.11719 26.8125 9.11719ZM33.4805 2.66016V3.85547H29.7891V2.66016H33.4805ZM30.7031 1.0957H32.3906V7.08984C32.3906 7.27344 32.4141 7.41406 32.4609 7.51172C32.5117 7.60938 32.5859 7.67773 32.6836 7.7168C32.7812 7.75195 32.9043 7.76953 33.0527 7.76953C33.1582 7.76953 33.252 7.76562 33.334 7.75781C33.4199 7.74609 33.4922 7.73438 33.5508 7.72266L33.5566 8.96484C33.4121 9.01172 33.2559 9.04883 33.0879 9.07617C32.9199 9.10352 32.7344 9.11719 32.5312 9.11719C32.1602 9.11719 31.8359 9.05664 31.5586 8.93555C31.2852 8.81055 31.0742 8.61133 30.9258 8.33789C30.7773 8.06445 30.7031 7.70508 30.7031 7.25977V1.0957Z" fill="url(#paint0_linear_1_3)"/>
<defs>
<linearGradient id="paint0_linear_1_3" x1="1.44754e-07" y1="5" x2="34" y2="5" gradientUnits="userSpaceOnUse">
<stop stop-color="white"/>
<stop offset="0.166667" stop-color="#980000"/>
<stop offset="0.333333" stop-color="#700000"/>
<stop offset="0.5" stop-color="#A20000"/>
<stop offset="0.666667" stop-color="#C40000"/>
<stop offset="0.833333" stop-color="#E40000"/>
<stop offset="1" stop-color="white"/>
</linearGradient>
</defs>
</svg>
